<svg width="2018.799" height="73.05" viewBox="0 0 2018.799 73.05" xmlns="http://www.w3.org/2000/svg">
  <g id="svgGroup" stroke-linecap="round" fill-rule="evenodd" font-size="9pt" stroke="#000" stroke-width="0.25mm" fill="black" style="stroke:#000;stroke-width:0.25mm;fill:black">
    <path d="M 43.311 48.39 L 57.96 48.39 A 30.152 30.152 0 0 1 56.217 56.758 A 23.351 23.351 0 0 1 49.488 66.456 A 26.289 26.289 0 0 1 38.038 72.121 Q 34.049 73.044 29.383 73.048 A 47.856 47.856 0 0 1 29.346 73.048 A 32.661 32.661 0 0 1 19.913 71.754 A 25.01 25.01 0 0 1 7.838 63.844 A 30.905 30.905 0 0 1 1.723 52.128 Q 0.431 47.611 0.108 42.246 A 61.121 61.121 0 0 1 0.001 38.575 L 0.001 34.23 A 49.378 49.378 0 0 1 0.848 24.869 A 37.641 37.641 0 0 1 3.614 16.163 Q 7.227 8.351 13.941 4.176 A 27.695 27.695 0 0 1 25.626 0.215 A 34.954 34.954 0 0 1 29.542 0.001 A 37.334 37.334 0 0 1 38.097 0.928 A 25.711 25.711 0 0 1 49.366 6.593 A 24.754 24.754 0 0 1 56.778 18.413 A 35.451 35.451 0 0 1 58.057 25.099 L 43.409 25.099 A 24.896 24.896 0 0 0 42.852 21.367 Q 42.406 19.46 41.658 17.967 A 10.043 10.043 0 0 0 39.576 15.113 A 10.226 10.226 0 0 0 35.882 12.94 Q 33.227 12.013 29.542 12.013 A 16.148 16.148 0 0 0 25.037 12.605 A 11.557 11.557 0 0 0 18.58 17.262 Q 15.182 22.165 14.873 32.118 A 64.401 64.401 0 0 0 14.844 33.546 L 14.844 38.917 Q 14.844 49.032 17.534 54.369 A 14.147 14.147 0 0 0 18.336 55.763 A 11.376 11.376 0 0 0 26.249 60.83 A 17.928 17.928 0 0 0 29.346 61.085 Q 36.133 61.085 39.478 57.984 Q 42.214 55.448 43.039 50.641 A 23.94 23.94 0 0 0 43.311 48.39 Z" />
    <path d="M 125.977 34.962 L 125.977 38.136 A 50.335 50.335 0 0 1 125.162 47.409 A 37.802 37.802 0 0 1 122.266 56.544 A 29.382 29.382 0 0 1 116.556 64.843 A 26.87 26.87 0 0 1 111.646 68.751 A 28.629 28.629 0 0 1 98.544 72.943 A 35.311 35.311 0 0 1 95.801 73.048 A 31.399 31.399 0 0 1 85.978 71.55 A 28.043 28.043 0 0 1 80.03 68.8 A 27.841 27.841 0 0 1 70.029 58.113 A 33.861 33.861 0 0 1 69.288 56.666 Q 65.479 48.78 65.43 38.526 L 65.43 35.011 A 49.399 49.399 0 0 1 66.318 25.431 A 37.787 37.787 0 0 1 69.214 16.529 Q 72.999 8.546 79.908 4.274 A 28.693 28.693 0 0 1 92.975 0.105 A 35.162 35.162 0 0 1 95.704 0.001 A 31.477 31.477 0 0 1 105.288 1.419 A 27.736 27.736 0 0 1 111.5 4.274 A 27.632 27.632 0 0 1 121.198 14.592 A 33.939 33.939 0 0 1 122.193 16.529 A 38.717 38.717 0 0 1 125.445 27.472 A 50.811 50.811 0 0 1 125.977 34.962 Z M 111.133 38.38 L 111.133 34.913 Q 111.133 27.97 109.59 23.097 A 19.382 19.382 0 0 0 107.13 17.921 A 12.749 12.749 0 0 0 97.94 12.252 A 17.103 17.103 0 0 0 95.704 12.11 A 15.076 15.076 0 0 0 90.552 12.951 A 12.799 12.799 0 0 0 84.327 17.848 Q 80.323 23.585 80.274 34.669 L 80.274 38.136 A 47.891 47.891 0 0 0 80.665 44.464 Q 81.095 47.683 81.998 50.324 A 20.251 20.251 0 0 0 84.278 55.03 Q 88.282 61.036 95.801 61.036 A 14.958 14.958 0 0 0 100.851 60.223 Q 104.658 58.866 107.13 55.25 Q 111.085 49.464 111.133 38.38 Z"  />
    <path d="M 136.622 0.978 L 155.762 0.978 L 174.024 52.54 L 192.188 0.978 L 211.426 0.978 L 211.426 72.071 L 196.729 72.071 L 196.729 52.638 L 198.194 19.093 L 179.005 72.071 L 168.946 72.071 L 149.805 19.142 L 151.27 52.638 L 151.27 72.071 L 136.622 72.071 L 136.622 0.978 Z"  />
    <path d="M 251.71 47.023 L 238.868 47.023 L 238.868 72.071 L 224.219 72.071 L 224.219 0.978 L 251.954 0.978 A 37.105 37.105 0 0 1 259.259 1.665 A 28.434 28.434 0 0 1 266.041 3.907 A 22.578 22.578 0 0 1 272.543 8.533 A 20.854 20.854 0 0 1 275.391 12.233 A 22.71 22.71 0 0 1 278.598 22.606 A 27.73 27.73 0 0 1 278.663 24.513 A 24.539 24.539 0 0 1 277.614 31.865 A 19.235 19.235 0 0 1 271.509 40.992 Q 264.356 47.023 251.71 47.023 Z M 238.868 12.843 L 238.868 35.157 L 251.954 35.157 Q 255.923 35.157 258.605 33.881 A 9.235 9.235 0 0 0 260.816 32.423 Q 263.868 29.689 263.868 24.61 A 14.428 14.428 0 0 0 263.398 20.834 A 10.691 10.691 0 0 0 260.792 16.163 A 10.39 10.39 0 0 0 255.491 13.218 A 15.336 15.336 0 0 0 252.296 12.843 L 238.868 12.843 Z"  />
    <path d="M 327.833 0.978 L 342.53 0.978 L 342.53 47.804 Q 342.53 59.474 335.23 66.261 A 24.377 24.377 0 0 1 324.369 72.007 Q 320.236 73.048 315.284 73.048 Q 304.206 73.048 297.186 67.83 A 23.169 23.169 0 0 1 295.508 66.456 A 22.065 22.065 0 0 1 288.508 53.512 A 31.818 31.818 0 0 1 288.038 48.341 L 288.038 0.978 L 302.686 0.978 L 302.686 47.901 A 23.168 23.168 0 0 0 302.951 51.53 Q 303.627 55.783 306.031 58.082 A 11.054 11.054 0 0 0 310.983 60.773 Q 312.686 61.217 314.702 61.272 A 21.135 21.135 0 0 0 315.284 61.28 A 16.886 16.886 0 0 0 320.332 60.59 Q 327.682 58.287 327.833 48.292 L 327.833 0.978 Z"  />
    <path d="M 408.057 0.978 L 408.057 12.843 L 386.28 12.843 L 386.28 72.071 L 371.631 72.071 L 371.631 12.843 L 350.147 12.843 L 350.147 0.978 L 408.057 0.978 Z"  />
    <path d="M 459.18 29.786 L 459.18 41.261 L 431.055 41.261 L 431.055 60.304 L 464.063 60.304 L 464.063 72.071 L 416.407 72.071 L 416.407 0.978 L 463.965 0.978 L 463.965 12.843 L 431.055 12.843 L 431.055 29.786 L 459.18 29.786 Z"  />
    <path d="M 512.305 72.071 L 498.975 46.046 L 487.305 46.046 L 487.305 72.071 L 472.657 72.071 L 472.657 0.978 L 499.073 0.978 A 45.41 45.41 0 0 1 506.552 1.554 Q 510.549 2.222 513.749 3.667 A 21.163 21.163 0 0 1 518.506 6.593 Q 525.342 12.208 525.342 22.462 A 27.763 27.763 0 0 1 524.842 27.876 Q 524.17 31.258 522.594 33.946 A 17.048 17.048 0 0 1 522.193 34.596 A 19.233 19.233 0 0 1 517.028 39.868 A 26.589 26.589 0 0 1 512.647 42.335 L 528.028 71.388 L 528.028 72.071 L 512.305 72.071 Z M 487.305 12.843 L 487.305 34.181 L 499.122 34.181 Q 504.639 34.181 507.667 31.373 A 9.223 9.223 0 0 0 510.455 26.24 A 13.512 13.512 0 0 0 510.694 23.634 Q 510.694 18.605 507.838 15.724 Q 505.548 13.414 501.296 12.956 A 20.779 20.779 0 0 0 499.073 12.843 L 487.305 12.843 Z"  />
    <path d="M 612.94 21.974 L 598.292 21.974 A 12.441 12.441 0 0 0 597.911 18.809 A 8.702 8.702 0 0 0 595.215 14.381 A 10.127 10.127 0 0 0 591.381 12.307 Q 589.863 11.85 588.043 11.721 A 20.878 20.878 0 0 0 586.573 11.671 A 20.626 20.626 0 0 0 583.45 11.893 Q 581.761 12.152 580.392 12.714 A 9.512 9.512 0 0 0 578.223 13.942 A 7.645 7.645 0 0 0 576.136 16.295 Q 575.274 17.84 575.246 19.789 A 9.151 9.151 0 0 0 575.245 19.923 A 6.263 6.263 0 0 0 577.168 24.45 A 10.042 10.042 0 0 0 578.736 25.733 A 22.808 22.808 0 0 0 581.382 27.24 Q 584.25 28.65 588.415 29.944 A 79.151 79.151 0 0 0 589.014 30.128 A 74.622 74.622 0 0 1 596.001 32.587 Q 603.255 35.584 607.227 39.454 Q 612.94 45.021 612.94 53.321 A 19.526 19.526 0 0 1 611.832 60.044 A 16.765 16.765 0 0 1 605.958 67.799 Q 599.957 72.31 590.387 72.944 A 48.82 48.82 0 0 1 587.159 73.048 A 38.937 38.937 0 0 1 577.934 71.989 A 33.391 33.391 0 0 1 572.217 70.045 A 27.397 27.397 0 0 1 566.623 66.757 A 21.308 21.308 0 0 1 561.939 61.817 A 20.633 20.633 0 0 1 558.458 51.455 A 25.6 25.6 0 0 1 558.399 49.708 L 573.096 49.708 A 13.995 13.995 0 0 0 573.921 54.718 Q 576.502 61.476 587.159 61.476 A 20.914 20.914 0 0 0 590.2 61.268 Q 591.846 61.026 593.187 60.5 A 9.537 9.537 0 0 0 595.313 59.352 A 6.764 6.764 0 0 0 598.185 54.457 A 9.055 9.055 0 0 0 598.243 53.419 A 9.359 9.359 0 0 0 597.866 50.692 A 7.041 7.041 0 0 0 595.313 47.047 A 15.484 15.484 0 0 0 593.36 45.814 Q 591.148 44.611 587.641 43.342 A 88.716 88.716 0 0 0 584.766 42.359 A 117.494 117.494 0 0 1 580.315 40.825 Q 578.056 39.992 576.165 39.168 A 46.769 46.769 0 0 1 572.706 37.501 A 30.175 30.175 0 0 1 566.852 33.461 A 17.618 17.618 0 0 1 560.596 19.874 A 17.168 17.168 0 0 1 563.843 9.596 A 19.372 19.372 0 0 1 569.322 4.521 A 25.935 25.935 0 0 1 573.17 2.54 A 32.757 32.757 0 0 1 582.011 0.274 A 41.113 41.113 0 0 1 586.817 0.001 A 35.959 35.959 0 0 1 594.231 0.735 A 28.635 28.635 0 0 1 600.391 2.76 Q 606.348 5.519 609.644 10.548 A 20.252 20.252 0 0 1 612.933 21.377 A 24.463 24.463 0 0 1 612.94 21.974 Z"  />
    <path d="M 664.014 48.39 L 678.663 48.39 A 30.152 30.152 0 0 1 676.92 56.758 A 23.351 23.351 0 0 1 670.191 66.456 A 26.289 26.289 0 0 1 658.741 72.121 Q 654.753 73.044 650.086 73.048 A 47.856 47.856 0 0 1 650.049 73.048 A 32.661 32.661 0 0 1 640.616 71.754 A 25.01 25.01 0 0 1 628.541 63.844 A 30.905 30.905 0 0 1 622.426 52.128 Q 621.134 47.611 620.811 42.246 A 61.121 61.121 0 0 1 620.704 38.575 L 620.704 34.23 A 49.378 49.378 0 0 1 621.551 24.869 A 37.641 37.641 0 0 1 624.317 16.163 Q 627.93 8.351 634.644 4.176 A 27.695 27.695 0 0 1 646.329 0.215 A 34.954 34.954 0 0 1 650.245 0.001 A 37.334 37.334 0 0 1 658.8 0.928 A 25.711 25.711 0 0 1 670.069 6.593 A 24.754 24.754 0 0 1 677.481 18.413 A 35.451 35.451 0 0 1 678.76 25.099 L 664.112 25.099 A 24.896 24.896 0 0 0 663.555 21.367 Q 663.109 19.46 662.361 17.967 A 10.043 10.043 0 0 0 660.279 15.113 A 10.226 10.226 0 0 0 656.585 12.94 Q 653.93 12.013 650.245 12.013 A 16.148 16.148 0 0 0 645.74 12.605 A 11.557 11.557 0 0 0 639.283 17.262 Q 635.885 22.165 635.576 32.118 A 64.401 64.401 0 0 0 635.547 33.546 L 635.547 38.917 Q 635.547 49.032 638.237 54.369 A 14.147 14.147 0 0 0 639.039 55.763 A 11.376 11.376 0 0 0 646.952 60.83 A 17.928 17.928 0 0 0 650.049 61.085 Q 656.837 61.085 660.181 57.984 Q 662.917 55.448 663.742 50.641 A 23.94 23.94 0 0 0 664.014 48.39 Z"  />
    <path d="M 703.858 0.978 L 703.858 72.071 L 689.21 72.071 L 689.21 0.978 L 703.858 0.978 Z"  />
    <path d="M 760.206 29.786 L 760.206 41.261 L 732.081 41.261 L 732.081 60.304 L 765.089 60.304 L 765.089 72.071 L 717.432 72.071 L 717.432 0.978 L 764.991 0.978 L 764.991 12.843 L 732.081 12.843 L 732.081 29.786 L 760.206 29.786 Z"  />
    <path d="M 831.495 0.978 L 831.495 72.071 L 816.846 72.071 L 788.331 25.294 L 788.331 72.071 L 773.682 72.071 L 773.682 0.978 L 788.331 0.978 L 816.895 47.853 L 816.895 0.978 L 831.495 0.978 Z"  />
    <path d="M 885.45 48.39 L 900.098 48.39 A 30.152 30.152 0 0 1 898.355 56.758 A 23.351 23.351 0 0 1 891.627 66.456 A 26.289 26.289 0 0 1 880.177 72.121 Q 876.188 73.044 871.522 73.048 A 47.856 47.856 0 0 1 871.485 73.048 A 32.661 32.661 0 0 1 862.052 71.754 A 25.01 25.01 0 0 1 849.976 63.844 A 30.905 30.905 0 0 1 843.861 52.128 Q 842.57 47.611 842.247 42.246 A 61.121 61.121 0 0 1 842.139 38.575 L 842.139 34.23 A 49.378 49.378 0 0 1 842.987 24.869 A 37.641 37.641 0 0 1 845.753 16.163 Q 849.366 8.351 856.08 4.176 A 27.695 27.695 0 0 1 867.765 0.215 A 34.954 34.954 0 0 1 871.68 0.001 A 37.334 37.334 0 0 1 880.236 0.928 A 25.711 25.711 0 0 1 891.505 6.593 A 24.754 24.754 0 0 1 898.917 18.413 A 35.451 35.451 0 0 1 900.196 25.099 L 885.547 25.099 A 24.896 24.896 0 0 0 884.991 21.367 Q 884.544 19.46 883.797 17.967 A 10.043 10.043 0 0 0 881.714 15.113 A 10.226 10.226 0 0 0 878.021 12.94 Q 875.365 12.013 871.68 12.013 A 16.148 16.148 0 0 0 867.175 12.605 A 11.557 11.557 0 0 0 860.718 17.262 Q 857.32 22.165 857.011 32.118 A 64.401 64.401 0 0 0 856.983 33.546 L 856.983 38.917 Q 856.983 49.032 859.673 54.369 A 14.147 14.147 0 0 0 860.474 55.763 A 11.376 11.376 0 0 0 868.388 60.83 A 17.928 17.928 0 0 0 871.485 61.085 Q 878.272 61.085 881.617 57.984 Q 884.353 55.448 885.178 50.641 A 23.94 23.94 0 0 0 885.45 48.39 Z"  />
    <path d="M 952.491 29.786 L 952.491 41.261 L 924.366 41.261 L 924.366 60.304 L 957.374 60.304 L 957.374 72.071 L 909.717 72.071 L 909.717 0.978 L 957.276 0.978 L 957.276 12.843 L 924.366 12.843 L 924.366 29.786 L 952.491 29.786 Z"  />
    <path d="M 1018.409 13.185 L 1018.409 32.276 L 1036.036 32.276 L 1036.036 45.021 L 1018.409 45.021 L 1018.409 64.942 L 1004.981 64.942 L 1004.981 45.021 L 987.305 45.021 L 987.305 32.276 L 1004.981 32.276 L 1004.981 13.185 L 1018.409 13.185 Z"  />
    <path d="M 1126.612 34.718 L 1126.612 63.087 A 22.026 22.026 0 0 1 1121.127 67.743 Q 1118.75 69.196 1115.823 70.291 A 37.505 37.505 0 0 1 1115.43 70.436 A 43.802 43.802 0 0 1 1105.014 72.767 A 54.347 54.347 0 0 1 1099.415 73.048 A 35.772 35.772 0 0 1 1090.754 72.041 A 28.832 28.832 0 0 1 1083.228 69.02 A 26.701 26.701 0 0 1 1072.848 58.036 A 32.312 32.312 0 0 1 1072.486 57.325 A 36.549 36.549 0 0 1 1069.317 47.42 A 49.545 49.545 0 0 1 1068.604 39.308 L 1068.604 34.474 A 53.199 53.199 0 0 1 1069.291 25.707 Q 1070.174 20.422 1072.193 16.041 A 28.243 28.243 0 0 1 1077.403 8.26 A 25.35 25.35 0 0 1 1082.545 4.127 A 28.061 28.061 0 0 1 1093.464 0.327 A 36.097 36.097 0 0 1 1098.389 0.001 A 42.727 42.727 0 0 1 1106.263 0.682 Q 1110.729 1.52 1114.25 3.39 A 22.072 22.072 0 0 1 1118.165 6.031 A 22.809 22.809 0 0 1 1124.914 16.012 A 34.008 34.008 0 0 1 1126.612 23.585 L 1112.354 23.585 Q 1111.673 19.329 1109.841 16.664 A 10.17 10.17 0 0 0 1108.033 14.65 A 11.249 11.249 0 0 0 1103.77 12.44 Q 1102.124 11.973 1100.168 11.856 A 22.492 22.492 0 0 0 1098.829 11.817 A 15.77 15.77 0 0 0 1093.92 12.543 A 12.421 12.421 0 0 0 1087.452 17.433 A 18.636 18.636 0 0 0 1085.065 22.413 Q 1083.575 27.055 1083.5 33.701 A 62.41 62.41 0 0 0 1083.497 34.132 L 1083.497 38.673 Q 1083.497 45.647 1085.149 50.494 A 18.372 18.372 0 0 0 1087.745 55.567 Q 1091.993 61.28 1100.196 61.28 A 30.696 30.696 0 0 0 1104.246 61.032 Q 1108.902 60.411 1111.459 58.23 A 8.649 8.649 0 0 0 1111.964 57.765 L 1111.964 45.509 L 1098.633 45.509 L 1098.633 34.718 L 1126.612 34.718 Z"  />
    <path d="M 1178.126 72.071 L 1164.796 46.046 L 1153.126 46.046 L 1153.126 72.071 L 1138.477 72.071 L 1138.477 0.978 L 1164.893 0.978 A 45.41 45.41 0 0 1 1172.372 1.554 Q 1176.369 2.222 1179.57 3.667 A 21.163 21.163 0 0 1 1184.327 6.593 Q 1191.163 12.208 1191.163 22.462 A 27.763 27.763 0 0 1 1190.663 27.876 Q 1189.99 31.258 1188.414 33.946 A 17.048 17.048 0 0 1 1188.013 34.596 A 19.233 19.233 0 0 1 1182.849 39.868 A 26.589 26.589 0 0 1 1178.467 42.335 L 1193.848 71.388 L 1193.848 72.071 L 1178.126 72.071 Z M 1153.126 12.843 L 1153.126 34.181 L 1164.942 34.181 Q 1170.46 34.181 1173.487 31.373 A 9.223 9.223 0 0 0 1176.275 26.24 A 13.512 13.512 0 0 0 1176.514 23.634 Q 1176.514 18.605 1173.658 15.724 Q 1171.368 13.414 1167.117 12.956 A 20.779 20.779 0 0 0 1164.893 12.843 L 1153.126 12.843 Z"  />
    <path d="M 1247.364 72.071 L 1242.432 57.423 L 1216.749 57.423 L 1211.866 72.071 L 1196.29 72.071 L 1222.755 0.978 L 1236.329 0.978 L 1262.94 72.071 L 1247.364 72.071 Z M 1229.542 18.946 L 1220.704 45.558 L 1238.477 45.558 L 1229.542 18.946 Z"  />
    <path d="M 1297.071 47.023 L 1284.229 47.023 L 1284.229 72.071 L 1269.581 72.071 L 1269.581 0.978 L 1297.315 0.978 A 37.105 37.105 0 0 1 1304.62 1.665 A 28.434 28.434 0 0 1 1311.402 3.907 A 22.578 22.578 0 0 1 1317.904 8.533 A 20.854 20.854 0 0 1 1320.753 12.233 A 22.71 22.71 0 0 1 1323.959 22.606 A 27.73 27.73 0 0 1 1324.024 24.513 A 24.539 24.539 0 0 1 1322.976 31.865 A 19.235 19.235 0 0 1 1316.871 40.992 Q 1309.717 47.023 1297.071 47.023 Z M 1284.229 12.843 L 1284.229 35.157 L 1297.315 35.157 Q 1301.284 35.157 1303.966 33.881 A 9.235 9.235 0 0 0 1306.177 32.423 Q 1309.229 29.689 1309.229 24.61 A 14.428 14.428 0 0 0 1308.76 20.834 A 10.691 10.691 0 0 0 1306.153 16.163 A 10.39 10.39 0 0 0 1300.852 13.218 A 15.336 15.336 0 0 0 1297.657 12.843 L 1284.229 12.843 Z"  />
    <path d="M 1391.944 0.978 L 1391.944 72.071 L 1377.296 72.071 L 1377.296 41.603 L 1348.731 41.603 L 1348.731 72.071 L 1334.083 72.071 L 1334.083 0.978 L 1348.731 0.978 L 1348.731 29.786 L 1377.296 29.786 L 1377.296 0.978 L 1391.944 0.978 Z"  />
    <path d="M 1420.313 0.978 L 1420.313 72.071 L 1405.665 72.071 L 1405.665 0.978 L 1420.313 0.978 Z"  />
    <path d="M 1475.049 48.39 L 1489.698 48.39 A 30.152 30.152 0 0 1 1487.955 56.758 A 23.351 23.351 0 0 1 1481.226 66.456 A 26.289 26.289 0 0 1 1469.776 72.121 Q 1465.788 73.044 1461.121 73.048 A 47.856 47.856 0 0 1 1461.085 73.048 A 32.661 32.661 0 0 1 1451.651 71.754 A 25.01 25.01 0 0 1 1439.576 63.844 A 30.905 30.905 0 0 1 1433.461 52.128 Q 1432.169 47.611 1431.847 42.246 A 61.121 61.121 0 0 1 1431.739 38.575 L 1431.739 34.23 A 49.378 49.378 0 0 1 1432.587 24.869 A 37.641 37.641 0 0 1 1435.352 16.163 Q 1438.965 8.351 1445.679 4.176 A 27.695 27.695 0 0 1 1457.365 0.215 A 34.954 34.954 0 0 1 1461.28 0.001 A 37.334 37.334 0 0 1 1469.836 0.928 A 25.711 25.711 0 0 1 1481.104 6.593 A 24.754 24.754 0 0 1 1488.516 18.413 A 35.451 35.451 0 0 1 1489.796 25.099 L 1475.147 25.099 A 24.896 24.896 0 0 0 1474.59 21.367 Q 1474.144 19.46 1473.396 17.967 A 10.043 10.043 0 0 0 1471.314 15.113 A 10.226 10.226 0 0 0 1467.62 12.94 Q 1464.965 12.013 1461.28 12.013 A 16.148 16.148 0 0 0 1456.775 12.605 A 11.557 11.557 0 0 0 1450.318 17.262 Q 1446.92 22.165 1446.611 32.118 A 64.401 64.401 0 0 0 1446.583 33.546 L 1446.583 38.917 Q 1446.583 49.032 1449.272 54.369 A 14.147 14.147 0 0 0 1450.074 55.763 A 11.376 11.376 0 0 0 1457.988 60.83 A 17.928 17.928 0 0 0 1461.085 61.085 Q 1467.872 61.085 1471.216 57.984 Q 1473.953 55.448 1474.777 50.641 A 23.94 23.94 0 0 0 1475.049 48.39 Z"  />
    <path d="M 1550.88 21.974 L 1536.231 21.974 A 12.441 12.441 0 0 0 1535.851 18.809 A 8.702 8.702 0 0 0 1533.155 14.381 A 10.127 10.127 0 0 0 1529.321 12.307 Q 1527.803 11.85 1525.983 11.721 A 20.878 20.878 0 0 0 1524.512 11.671 A 20.626 20.626 0 0 0 1521.389 11.893 Q 1519.7 12.152 1518.331 12.714 A 9.512 9.512 0 0 0 1516.163 13.942 A 7.645 7.645 0 0 0 1514.075 16.295 Q 1513.214 17.84 1513.185 19.789 A 9.151 9.151 0 0 0 1513.184 19.923 A 6.263 6.263 0 0 0 1515.107 24.45 A 10.042 10.042 0 0 0 1516.675 25.733 A 22.808 22.808 0 0 0 1519.321 27.24 Q 1522.19 28.65 1526.355 29.944 A 79.151 79.151 0 0 0 1526.954 30.128 A 74.622 74.622 0 0 1 1533.941 32.587 Q 1541.194 35.584 1545.167 39.454 Q 1550.88 45.021 1550.88 53.321 A 19.526 19.526 0 0 1 1549.771 60.044 A 16.765 16.765 0 0 1 1543.897 67.799 Q 1537.897 72.31 1528.326 72.944 A 48.82 48.82 0 0 1 1525.098 73.048 A 38.937 38.937 0 0 1 1515.873 71.989 A 33.391 33.391 0 0 1 1510.157 70.045 A 27.397 27.397 0 0 1 1504.563 66.757 A 21.308 21.308 0 0 1 1499.879 61.817 A 20.633 20.633 0 0 1 1496.397 51.455 A 25.6 25.6 0 0 1 1496.339 49.708 L 1511.036 49.708 A 13.995 13.995 0 0 0 1511.861 54.718 Q 1514.442 61.476 1525.098 61.476 A 20.914 20.914 0 0 0 1528.14 61.268 Q 1529.786 61.026 1531.126 60.5 A 9.537 9.537 0 0 0 1533.253 59.352 A 6.764 6.764 0 0 0 1536.124 54.457 A 9.055 9.055 0 0 0 1536.182 53.419 A 9.359 9.359 0 0 0 1535.806 50.692 A 7.041 7.041 0 0 0 1533.253 47.047 A 15.484 15.484 0 0 0 1531.3 45.814 Q 1529.087 44.611 1525.58 43.342 A 88.716 88.716 0 0 0 1522.706 42.359 A 117.494 117.494 0 0 1 1518.255 40.825 Q 1515.995 39.992 1514.105 39.168 A 46.769 46.769 0 0 1 1510.645 37.501 A 30.175 30.175 0 0 1 1504.791 33.461 A 17.618 17.618 0 0 1 1498.536 19.874 A 17.168 17.168 0 0 1 1501.783 9.596 A 19.372 19.372 0 0 1 1507.262 4.521 A 25.935 25.935 0 0 1 1511.109 2.54 A 32.757 32.757 0 0 1 1519.95 0.274 A 41.113 41.113 0 0 1 1524.756 0.001 A 35.959 35.959 0 0 1 1532.17 0.735 A 28.635 28.635 0 0 1 1538.331 2.76 Q 1544.288 5.519 1547.584 10.548 A 20.252 20.252 0 0 1 1550.872 21.377 A 24.463 24.463 0 0 1 1550.88 21.974 Z"  />
    <path d="M 1637.256 21.974 L 1622.608 21.974 A 12.441 12.441 0 0 0 1622.228 18.809 A 8.702 8.702 0 0 0 1619.532 14.381 A 10.127 10.127 0 0 0 1615.697 12.307 Q 1614.18 11.85 1612.36 11.721 A 20.878 20.878 0 0 0 1610.889 11.671 A 20.626 20.626 0 0 0 1607.766 11.893 Q 1606.077 12.152 1604.708 12.714 A 9.512 9.512 0 0 0 1602.54 13.942 A 7.645 7.645 0 0 0 1600.452 16.295 Q 1599.591 17.84 1599.562 19.789 A 9.151 9.151 0 0 0 1599.561 19.923 A 6.263 6.263 0 0 0 1601.484 24.45 A 10.042 10.042 0 0 0 1603.052 25.733 A 22.808 22.808 0 0 0 1605.698 27.24 Q 1608.567 28.65 1612.732 29.944 A 79.151 79.151 0 0 0 1613.331 30.128 A 74.622 74.622 0 0 1 1620.318 32.587 Q 1627.571 35.584 1631.544 39.454 Q 1637.256 45.021 1637.256 53.321 A 19.526 19.526 0 0 1 1636.148 60.044 A 16.765 16.765 0 0 1 1630.274 67.799 Q 1624.274 72.31 1614.703 72.944 A 48.82 48.82 0 0 1 1611.475 73.048 A 38.937 38.937 0 0 1 1602.25 71.989 A 33.391 33.391 0 0 1 1596.534 70.045 A 27.397 27.397 0 0 1 1590.94 66.757 A 21.308 21.308 0 0 1 1586.256 61.817 A 20.633 20.633 0 0 1 1582.774 51.455 A 25.6 25.6 0 0 1 1582.715 49.708 L 1597.413 49.708 A 13.995 13.995 0 0 0 1598.238 54.718 Q 1600.818 61.476 1611.475 61.476 A 20.914 20.914 0 0 0 1614.516 61.268 Q 1616.163 61.026 1617.503 60.5 A 9.537 9.537 0 0 0 1619.63 59.352 A 6.764 6.764 0 0 0 1622.501 54.457 A 9.055 9.055 0 0 0 1622.559 53.419 A 9.359 9.359 0 0 0 1622.183 50.692 A 7.041 7.041 0 0 0 1619.63 47.047 A 15.484 15.484 0 0 0 1617.677 45.814 Q 1615.464 44.611 1611.957 43.342 A 88.716 88.716 0 0 0 1609.083 42.359 A 117.494 117.494 0 0 1 1604.632 40.825 Q 1602.372 39.992 1600.482 39.168 A 46.769 46.769 0 0 1 1597.022 37.501 A 30.175 30.175 0 0 1 1591.168 33.461 A 17.618 17.618 0 0 1 1584.913 19.874 A 17.168 17.168 0 0 1 1588.16 9.596 A 19.372 19.372 0 0 1 1593.639 4.521 A 25.935 25.935 0 0 1 1597.486 2.54 A 32.757 32.757 0 0 1 1606.327 0.274 A 41.113 41.113 0 0 1 1611.133 0.001 A 35.959 35.959 0 0 1 1618.547 0.735 A 28.635 28.635 0 0 1 1624.708 2.76 Q 1630.665 5.519 1633.961 10.548 A 20.252 20.252 0 0 1 1637.249 21.377 A 24.463 24.463 0 0 1 1637.256 21.974 Z"  />
    <path d="M 1700.684 0.978 L 1700.684 12.843 L 1678.907 12.843 L 1678.907 72.071 L 1664.258 72.071 L 1664.258 12.843 L 1642.774 12.843 L 1642.774 0.978 L 1700.684 0.978 Z"  />
    <path d="M 1748.145 0.978 L 1762.842 0.978 L 1762.842 47.804 Q 1762.842 59.474 1755.543 66.261 A 24.377 24.377 0 0 1 1744.681 72.007 Q 1740.549 73.048 1735.596 73.048 Q 1724.518 73.048 1717.499 67.83 A 23.169 23.169 0 0 1 1715.821 66.456 A 22.065 22.065 0 0 1 1708.82 53.512 A 31.818 31.818 0 0 1 1708.35 48.341 L 1708.35 0.978 L 1722.999 0.978 L 1722.999 47.901 A 23.168 23.168 0 0 0 1723.263 51.53 Q 1723.939 55.783 1726.343 58.082 A 11.054 11.054 0 0 0 1731.295 60.773 Q 1732.999 61.217 1735.014 61.272 A 21.135 21.135 0 0 0 1735.596 61.28 A 16.886 16.886 0 0 0 1740.645 60.59 Q 1747.995 58.287 1748.145 48.292 L 1748.145 0.978 Z"  />
    <path d="M 1796.876 72.071 L 1774.854 72.071 L 1774.854 0.978 L 1796.729 0.978 A 35.628 35.628 0 0 1 1806.908 2.389 A 31.074 31.074 0 0 1 1813.502 5.201 A 29.452 29.452 0 0 1 1825.049 17.213 Q 1829.2 25.001 1829.2 34.913 L 1829.2 38.185 A 41.116 41.116 0 0 1 1828.049 48.096 A 33.872 33.872 0 0 1 1825.123 55.812 Q 1821.046 63.526 1813.624 67.775 A 32.692 32.692 0 0 1 1799.744 71.954 A 39.492 39.492 0 0 1 1796.876 72.071 Z M 1796.729 12.843 L 1789.503 12.843 L 1789.503 60.304 L 1796.583 60.304 A 20.935 20.935 0 0 0 1802.011 59.641 A 14.457 14.457 0 0 0 1809.717 54.689 Q 1813.327 50.225 1814.129 42.707 A 42.247 42.247 0 0 0 1814.356 38.624 L 1814.356 34.864 A 41.857 41.857 0 0 0 1813.939 28.746 Q 1812.987 22.321 1809.864 18.434 A 14.52 14.52 0 0 0 1801.087 13.249 A 22.181 22.181 0 0 0 1796.729 12.843 Z"  />
    <path d="M 1882.618 29.786 L 1882.618 41.261 L 1854.493 41.261 L 1854.493 60.304 L 1887.501 60.304 L 1887.501 72.071 L 1839.844 72.071 L 1839.844 0.978 L 1887.403 0.978 L 1887.403 12.843 L 1854.493 12.843 L 1854.493 29.786 L 1882.618 29.786 Z"  />
    <path d="M 1953.907 0.978 L 1953.907 72.071 L 1939.258 72.071 L 1910.743 25.294 L 1910.743 72.071 L 1896.094 72.071 L 1896.094 0.978 L 1910.743 0.978 L 1939.307 47.853 L 1939.307 0.978 L 1953.907 0.978 Z"  />
    <path d="M 2018.799 0.978 L 2018.799 12.843 L 1997.022 12.843 L 1997.022 72.071 L 1982.374 72.071 L 1982.374 12.843 L 1960.889 12.843 L 1960.889 0.978 L 2018.799 0.978 Z"  />
  </g>
</svg>
